# xmcd
#
# Track frame offsets: 
#        150
#        16831
#        35156
#        57153
#        76143
#        93868
#        112179
#        132996
#        152247
#        170975
#        191755
#        213437
#        240999
#        266295
#
# Disc length: 3790 seconds
#
# Revision: 8
# Processed by: cddbd v1.5.2PL0 Copyright (c) Steve Scherf et al.
# Submitted via: ExactAudioCopyFreeDBPlugin 1.0
#
DISCID=bc0ecc0e
DTITLE=Chris Stapleton - Traveller
DYEAR=2015
DGENRE=Country
TTITLE0=Traveller
TTITLE1=Fire Away
TTITLE2=Tennessee Whiskey
TTITLE3=Parachute
TTITLE4=Whiskey And You
TTITLE5=Nobody To Blame
TTITLE6=More Of You
TTITLE7=When The Stars Come Out
TTITLE8=Daddy Doesn't Pray Anymore
TTITLE9=Might As Well Get Stoned
TTITLE10=Was It 26
TTITLE11=The Devil Named Music
TTITLE12=Outlaw State Of Mind
TTITLE13=Sometimes I Cry
EXTD=
EXTT0=
EXTT1=
EXTT2=
EXTT3=
EXTT4=
EXTT5=
EXTT6=
EXTT7=
EXTT8=
EXTT9=
EXTT10=
EXTT11=
EXTT12=
EXTT13=
PLAYORDER=
